<svg width="612" height="128" viewBox="0 0 612 128" fill="none" xmlns="http://www.w3.org/2000/svg">
<path d="M85.064 99V83.448H90.536V66.936C90.536 64.472 89.944 62.536 88.76 61.128C87.608 59.688 85.976 58.968 83.864 58.968C82.264 58.968 80.776 59.464 79.4 60.456C78.024 61.416 76.904 62.936 76.04 65.016C75.208 67.064 74.792 69.72 74.792 72.984L71.912 59.928H75.416C76.184 54.456 78.024 50.344 80.936 47.592C83.88 44.84 87.912 43.464 93.032 43.464C98.632 43.464 102.808 45.016 105.56 48.12C108.344 51.192 109.736 55.48 109.736 60.984V83.448H116.024V99H85.064ZM13.928 99V83.448H20.6V60.312H13.928V44.76H39.8V83.448H45.32V99H13.928ZM50.12 99V83.448H55.592V66.936C55.592 64.472 55 62.536 53.816 61.128C52.664 59.688 51.016 58.968 48.872 58.968C47.304 58.968 45.816 59.464 44.408 60.456C43.032 61.416 41.912 62.936 41.048 65.016C40.216 67.064 39.8 69.72 39.8 72.984L36.968 59.928H40.472C41.208 54.456 43.032 50.344 45.944 47.592C48.888 44.84 52.936 43.464 58.088 43.464C63.688 43.464 67.864 45.016 70.616 48.12C73.4 51.192 74.792 55.48 74.792 60.984V83.448H81.08V99H50.12ZM146.163 83.448H151.875V99H120.147V83.448H126.963V60.312H120.147V44.76H146.163V83.448ZM162.627 83.448V66.984C162.627 64.52 162.035 62.568 160.851 61.128C159.667 59.688 157.987 58.968 155.811 58.968C153.923 58.968 152.243 59.544 150.771 60.696C149.331 61.816 148.195 63.416 147.363 65.496C146.563 67.576 146.163 70.072 146.163 72.984L143.331 61.224H146.787C147.331 57.32 148.403 54.056 150.003 51.432C151.635 48.808 153.731 46.84 156.291 45.528C158.851 44.216 161.843 43.56 165.267 43.56C170.643 43.56 174.739 45.096 177.555 48.168C180.403 51.208 181.827 55.576 181.827 61.272V83.448H188.115V99H157.011V83.448H162.627ZM222.343 100.2C216.071 100.2 210.647 99.016 206.071 96.648C201.495 94.28 197.959 90.984 195.463 86.76C192.999 82.536 191.767 77.608 191.767 71.976C191.767 66.344 192.999 61.4 195.463 57.144C197.927 52.856 201.399 49.528 205.879 47.16C210.391 44.76 215.703 43.56 221.815 43.56C227.927 43.56 233.207 44.76 237.655 47.16C242.135 49.528 245.591 52.856 248.023 57.144C250.455 61.4 251.671 66.344 251.671 71.976C251.671 72.744 251.671 73.448 251.671 74.088C251.671 74.696 251.655 75.272 251.623 75.816H232.711C232.775 75.144 232.807 74.456 232.807 73.752C232.839 73.016 232.855 72.232 232.855 71.4C232.855 68.904 232.423 66.76 231.559 64.968C230.727 63.144 229.511 61.736 227.911 60.744C226.343 59.752 224.455 59.256 222.247 59.256C220.071 59.256 218.167 59.768 216.535 60.792C214.935 61.816 213.687 63.288 212.791 65.208C211.895 67.096 211.447 69.352 211.447 71.976C211.447 74.248 211.895 76.248 212.791 77.976C213.719 79.704 215.015 81.064 216.679 82.056C218.343 83.048 220.327 83.544 222.631 83.544C224.871 83.544 226.823 83.08 228.487 82.152C230.151 81.224 231.415 79.976 232.279 78.408L250.903 83.16C248.855 88.44 245.335 92.6 240.343 95.64C235.383 98.68 229.383 100.2 222.343 100.2ZM204.007 75.816V67.272H237.847L238.423 75.816H204.007ZM328.345 99V83.448H333.817V66.936C333.817 64.472 333.225 62.536 332.041 61.128C330.889 59.688 329.257 58.968 327.145 58.968C325.545 58.968 324.057 59.464 322.681 60.456C321.305 61.416 320.185 62.936 319.321 65.016C318.489 67.064 318.073 69.72 318.073 72.984L315.193 59.928H318.697C319.465 54.456 321.305 50.344 324.217 47.592C327.161 44.84 331.193 43.464 336.313 43.464C341.913 43.464 346.089 45.016 348.841 48.12C351.625 51.192 353.017 55.48 353.017 60.984V83.448H359.305V99H328.345ZM257.209 99V83.448H263.881V60.312H257.209V44.76H283.081V83.448H288.601V99H257.209ZM293.401 99V83.448H298.873V66.936C298.873 64.472 298.281 62.536 297.097 61.128C295.945 59.688 294.297 58.968 292.153 58.968C290.585 58.968 289.097 59.464 287.689 60.456C286.313 61.416 285.193 62.936 284.329 65.016C283.497 67.064 283.081 69.72 283.081 72.984L280.249 59.928H283.753C284.489 54.456 286.313 50.344 289.225 47.592C292.169 44.84 296.217 43.464 301.369 43.464C306.969 43.464 311.145 45.016 313.897 48.12C316.681 51.192 318.073 55.48 318.073 60.984V83.448H324.361V99H293.401ZM393.723 100.2C387.483 100.2 382.043 99.016 377.403 96.648C372.795 94.28 369.227 90.984 366.699 86.76C364.171 82.504 362.907 77.576 362.907 71.976C362.907 66.344 364.171 61.4 366.699 57.144C369.227 52.856 372.795 49.528 377.403 47.16C382.043 44.76 387.483 43.56 393.723 43.56C399.995 43.56 405.435 44.76 410.043 47.16C414.651 49.528 418.219 52.856 420.747 57.144C423.307 61.4 424.587 66.344 424.587 71.976C424.587 77.576 423.323 82.504 420.795 86.76C418.267 90.984 414.683 94.28 410.043 96.648C405.435 99.016 399.995 100.2 393.723 100.2ZM393.723 83.544C395.931 83.544 397.851 83.064 399.483 82.104C401.147 81.112 402.427 79.752 403.323 78.024C404.251 76.296 404.715 74.28 404.715 71.976C404.715 69.64 404.251 67.592 403.323 65.832C402.427 64.072 401.147 62.712 399.483 61.752C397.851 60.76 395.931 60.264 393.723 60.264C391.515 60.264 389.579 60.76 387.915 61.752C386.283 62.712 385.003 64.072 384.075 65.832C383.179 67.592 382.731 69.64 382.731 71.976C382.731 74.28 383.179 76.296 384.075 78.024C385.003 79.752 386.283 81.112 387.915 82.104C389.579 83.064 391.515 83.544 393.723 83.544ZM456.194 83.448H461.906V99H430.178V83.448H436.994V60.312H430.178V44.76H456.194V83.448ZM472.658 83.448V66.984C472.658 64.52 472.066 62.568 470.882 61.128C469.698 59.688 468.018 58.968 465.842 58.968C463.954 58.968 462.274 59.544 460.802 60.696C459.362 61.816 458.226 63.416 457.394 65.496C456.594 67.576 456.194 70.072 456.194 72.984L453.362 61.224H456.818C457.362 57.32 458.434 54.056 460.034 51.432C461.666 48.808 463.762 46.84 466.322 45.528C468.882 44.216 471.874 43.56 475.298 43.56C480.674 43.56 484.77 45.096 487.586 48.168C490.434 51.208 491.858 55.576 491.858 61.272V83.448H498.146V99H467.042V83.448H472.658ZM528.768 83.448H534.864V99H502.752V83.448H509.568V60.312H502.752V44.76H528.768V83.448ZM508.464 23.496H529.104V39.048H508.464V23.496ZM569.692 100.2C563.42 100.2 557.98 99.016 553.372 96.648C548.764 94.28 545.212 90.984 542.716 86.76C540.22 82.504 538.972 77.576 538.972 71.976C538.972 67.72 539.628 63.864 540.94 60.408C542.284 56.952 544.124 53.96 546.46 51.432C548.796 48.904 551.484 46.968 554.524 45.624C557.564 44.248 560.78 43.56 564.172 43.56C567.276 43.56 569.852 44.136 571.9 45.288C573.98 46.44 575.58 48.168 576.7 50.472C577.82 52.776 578.524 55.624 578.812 59.016H582.796L579.436 68.904C579.244 66.888 578.716 65.16 577.852 63.72C576.988 62.248 575.852 61.144 574.444 60.408C573.036 59.64 571.388 59.256 569.5 59.256C567.324 59.256 565.42 59.768 563.788 60.792C562.156 61.784 560.892 63.208 559.996 65.064C559.1 66.92 558.652 69.064 558.652 71.496C558.652 73.96 559.1 76.088 559.996 77.88C560.924 79.672 562.22 81.064 563.884 82.056C565.58 83.048 567.596 83.544 569.932 83.544C572.46 83.544 574.572 82.968 576.268 81.816C577.996 80.632 579.148 79.064 579.724 77.112L598.684 82.632C597.084 88.072 593.74 92.36 588.652 95.496C583.564 98.632 577.244 100.2 569.692 100.2ZM579.436 68.904V44.76H598.636V68.904H579.436Z" fill="black"/>
</svg>
