<svg width="128" height="128" viewBox="0 0 128 128" fill="none" xmlns="http://www.w3.org/2000/svg">
<g clip-path="url(#clip0_1_2)">
<path d="M128 128H0V0H128V128ZM93.0322 43.4639C87.9122 43.4639 83.8795 44.8398 80.9355 47.5918C78.0237 50.3438 76.184 54.456 75.416 59.9277H74.7734C74.6045 54.9287 73.2194 50.9927 70.6162 48.1201C67.8642 45.0161 63.6879 43.4639 58.0879 43.4639C52.9361 43.4639 48.8883 44.84 45.9443 47.5918C43.0324 50.3438 41.2077 54.4558 40.4717 59.9277H39.7998V44.7598H13.9277V60.3115H20.5996V83.4482H13.9277V99H45.3203V83.4482H39.7998V72.9844C39.7998 69.7204 40.2159 67.0636 41.0479 65.0156C41.9118 62.9358 43.0323 61.416 44.4082 60.4561C45.8162 59.4641 47.3041 58.9678 48.8721 58.9678C51.016 58.9678 52.6644 59.6879 53.8164 61.1279C55.0002 62.5358 55.5917 64.4719 55.5918 66.9355V83.4482H50.1201V99H81.0801V83.4482H74.792V72.9844C74.792 69.7204 75.208 67.0636 76.04 65.0156C76.904 62.9358 78.0245 61.416 79.4004 60.4561C80.7763 59.4642 82.2643 58.9678 83.8643 58.9678C85.9761 58.9678 87.6078 59.6881 88.7598 61.1279C89.9437 62.5358 90.5361 64.4718 90.5361 66.9355V83.4482H85.0645V99H116.024V83.4482H109.736V60.9844C109.736 55.4804 108.344 51.1921 105.56 48.1201C102.808 45.0163 98.632 43.4639 93.0322 43.4639Z" fill="black"/>
</g>
<defs>
<clipPath id="clip0_1_2">
<rect width="128" height="128" fill="white"/>
</clipPath>
</defs>
</svg>
