<svg xmlns="http://www.w3.org/2000/svg">
    <defs>
        <symbol id="bookmark" viewBox="0 0 24 24"><path fill="currentColor" d="M5 2h14a1 1 0 0 1 1 1v19.143a.5.5 0 0 1-.766.424L12 18.03l-7.234 4.536A.5.5 0 0 1 4 22.143V3a1 1 0 0 1 1-1m13 2H6v15.432l6-3.761l6 3.761z"/></symbol>
        <symbol id="rss" viewBox="0 0 24 24"><path fill="currentColor" d="M3 17a4 4 0 0 1 4 4H3zm0-7c6.075 0 11 4.925 11 11h-2a9 9 0 0 0-9-9zm0-7c9.941 0 18 8.059 18 18h-2c0-8.837-7.163-16-16-16z"/></symbol>
        <symbol id="history" viewBox="0 0 24 24"><path fill="currentColor" d="M12 2c5.523 0 10 4.477 10 10s-4.477 10-10 10S2 17.523 2 12h2a8 8 0 1 0 1.385-4.5H8v2H2v-6h2V6a9.99 9.99 0 0 1 8-4m1 5v4.585l3.243 3.243l-1.415 1.415L11 12.413V7z"/></symbol>
        <symbol id="pulse" viewBox="0 0 24 24"><path fill="currentColor" d="m9 7.539l6 14L18.66 13H23v-2h-5.66L15 16.461l-6-14L5.34 11H1v2h5.66z"/></symbol>
        <symbol id="plus" viewBox="0 0 24 24"><path fill="currentColor" d="M11 11V5h2v6h6v2h-6v6h-2v-6H5v-2z"/></symbol>
        <symbol id="global" viewBox="0 0 24 24"><path fill="currentColor" d="M12 22C6.477 22 2 17.523 2 12S6.477 2 12 2s10 4.477 10 10s-4.477 10-10 10m-2.29-2.333A17.9 17.9 0 0 1 8.027 13H4.062a8.01 8.01 0 0 0 5.648 6.667M10.03 13c.151 2.439.848 4.73 1.97 6.752A15.9 15.9 0 0 0 13.97 13zm9.908 0h-3.965a17.9 17.9 0 0 1-1.683 6.667A8.01 8.01 0 0 0 19.938 13M4.062 11h3.965A17.9 17.9 0 0 1 9.71 4.333A8.01 8.01 0 0 0 4.062 11m5.969 0h3.938A15.9 15.9 0 0 0 12 4.248A15.9 15.9 0 0 0 10.03 11m4.259-6.667A17.9 17.9 0 0 1 15.973 11h3.965a8.01 8.01 0 0 0-5.648-6.667"/></symbol>
        <symbol id="search" viewBox="0 0 24 24"><path fill="currentColor" d="m18.031 16.617l4.283 4.282l-1.415 1.415l-4.282-4.283A8.96 8.96 0 0 1 11 20c-4.968 0-9-4.032-9-9s4.032-9 9-9s9 4.032 9 9a8.96 8.96 0 0 1-1.969 5.617m-2.006-.742A6.98 6.98 0 0 0 18 11c0-3.867-3.133-7-7-7s-7 3.133-7 7s3.133 7 7 7a6.98 6.98 0 0 0 4.875-1.975z"/></symbol>
    </defs>
</svg>
