<svg xmlns="http://www.w3.org/2000/svg">
    <defs>
        <symbol id="bookmark-24" viewBox="0 0 24 24"><path fill="currentColor" fill-rule="evenodd" d="M6.32 2.577a49.3 49.3 0 0 1 11.36 0c1.497.174 2.57 1.46 2.57 2.93V21a.75.75 0 0 1-1.085.67L12 18.089l-7.165 3.583A.75.75 0 0 1 3.75 21V5.507c0-1.47 1.073-2.756 2.57-2.93" clip-rule="evenodd"/></symbol>
        <symbol id="bookmark-16" viewBox="0 0 16 16"><path fill="currentColor" d="M3.75 2a.75.75 0 0 0-.75.75v10.5a.75.75 0 0 0 1.28.53L8 10.06l3.72 3.72a.75.75 0 0 0 1.28-.53V2.75a.75.75 0 0 0-.75-.75z"/></symbol>
        <symbol id="rss-24" viewBox="0 0 24 24"><path fill="currentColor" fill-rule="evenodd" d="M3.75 4.5a.75.75 0 0 1 .75-.75h.75c8.284 0 15 6.716 15 15v.75a.75.75 0 0 1-.75.75h-.75a.75.75 0 0 1-.75-.75v-.75C18 11.708 12.292 6 5.25 6H4.5a.75.75 0 0 1-.75-.75zm0 6.75a.75.75 0 0 1 .75-.75h.75a8.25 8.25 0 0 1 8.25 8.25v.75a.75.75 0 0 1-.75.75H12a.75.75 0 0 1-.75-.75v-.75a6 6 0 0 0-6-6H4.5a.75.75 0 0 1-.75-.75zm0 7.5a1.5 1.5 0 1 1 3 0a1.5 1.5 0 0 1-3 0" clip-rule="evenodd"/></symbol>
        <symbol id="rss-16" viewBox="0 0 16 16"><path fill="currentColor" fill-rule="evenodd" d="M2 2.75A.75.75 0 0 1 2.75 2C8.963 2 14 7.037 14 13.25a.75.75 0 0 1-1.5 0A9.75 9.75 0 0 0 2.75 3.5A.75.75 0 0 1 2 2.75m0 4.5a.75.75 0 0 1 .75-.75a6.75 6.75 0 0 1 6.75 6.75a.75.75 0 0 1-1.5 0C8 10.35 5.65 8 2.75 8A.75.75 0 0 1 2 7.25M3.5 11a1.5 1.5 0 1 0 0 3a1.5 1.5 0 0 0 0-3" clip-rule="evenodd"/></symbol>
        <symbol id="plus-24" viewBox="0 0 24 24"><path fill="currentColor" fill-rule="evenodd" d="M12 3.75a.75.75 0 0 1 .75.75v6.75h6.75a.75.75 0 0 1 0 1.5h-6.75v6.75a.75.75 0 0 1-1.5 0v-6.75H4.5a.75.75 0 0 1 0-1.5h6.75V4.5a.75.75 0 0 1 .75-.75" clip-rule="evenodd"/></symbol>
        <symbol id="plus-16" viewBox="0 0 16 16"><path fill="currentColor" d="M8.75 3.75a.75.75 0 0 0-1.5 0v3.5h-3.5a.75.75 0 0 0 0 1.5h3.5v3.5a.75.75 0 0 0 1.5 0v-3.5h3.5a.75.75 0 0 0 0-1.5h-3.5z"/></symbol>
        <symbol id="library-24" viewBox="0 0 24 24"><g fill="currentColor"><path d="M11.584 2.376a.75.75 0 0 1 .832 0l9 6a.75.75 0 1 1-.832 1.248L12 3.901L3.416 9.624a.75.75 0 0 1-.832-1.248z"/><path fill-rule="evenodd" d="M20.25 10.333v9.917H21a.75.75 0 0 1 0 1.5H3a.75.75 0 0 1 0-1.5h.75v-9.917a.75.75 0 0 1 .634-.741A49 49 0 0 1 12 9c2.59 0 5.134.202 7.616.592a.75.75 0 0 1 .634.74m-7.5 2.417a.75.75 0 0 0-1.5 0v6.75a.75.75 0 0 0 1.5 0zm3-.75a.75.75 0 0 1 .75.75v6.75a.75.75 0 0 1-1.5 0v-6.75a.75.75 0 0 1 .75-.75M9 12.75a.75.75 0 0 0-1.5 0v6.75a.75.75 0 0 0 1.5 0z" clip-rule="evenodd"/><path d="M12 7.875a1.125 1.125 0 1 0 0-2.25a1.125 1.125 0 0 0 0 2.25"/></g></symbol>
        <symbol id="library-16" viewBox="0 0 16 16"><path fill="currentColor" fill-rule="evenodd" d="M7.605 2.112a.75.75 0 0 1 .79 0l5.25 3.25A.75.75 0 0 1 13 6.707V12.5h.25a.75.75 0 0 1 0 1.5H2.75a.75.75 0 0 1 0-1.5H3V6.707a.75.75 0 0 1-.645-1.345zM4.5 8.75a.75.75 0 0 1 1.5 0v3a.75.75 0 0 1-1.5 0zM8 8a.75.75 0 0 0-.75.75v3a.75.75 0 0 0 1.5 0v-3A.75.75 0 0 0 8 8m2 .75a.75.75 0 0 1 1.5 0v3a.75.75 0 0 1-1.5 0zM8 6a1 1 0 1 0 0-2a1 1 0 0 0 0 2" clip-rule="evenodd"/></symbol>
        <symbol id="search-24" viewBox="0 0 24 24"><path fill="currentColor" fill-rule="evenodd" d="M10.5 3.75a6.75 6.75 0 1 0 0 13.5a6.75 6.75 0 0 0 0-13.5M2.25 10.5a8.25 8.25 0 1 1 14.59 5.28l4.69 4.69a.75.75 0 1 1-1.06 1.06l-4.69-4.69A8.25 8.25 0 0 1 2.25 10.5" clip-rule="evenodd"/></symbol>
        <symbol id="search-16" viewBox="0 0 16 16"><path fill="currentColor" fill-rule="evenodd" d="M9.965 11.026a5 5 0 1 1 1.06-1.06l2.755 2.754a.75.75 0 1 1-1.06 1.06zM10.5 7a3.5 3.5 0 1 1-7 0a3.5 3.5 0 0 1 7 0" clip-rule="evenodd"/></symbol>
    </defs>
</svg>
