<svg xmlns="http://www.w3.org/2000/svg">
<defs>
<symbol id="full" viewBox="0 0 612 128">
<g clip-path="url(#clip0_1_5)">
<path d="M612 128H0V0H612V128ZM221.815 43.5596C215.703 43.5596 210.391 44.7602 205.879 47.1602C201.399 49.5281 197.927 52.8557 195.463 57.1436C192.999 61.3995 191.768 66.3438 191.768 71.9756C191.768 77.6074 192.999 82.5358 195.463 86.7598C197.959 90.9838 201.495 94.2804 206.071 96.6484C210.647 99.0163 216.071 100.2 222.343 100.2C229.383 100.2 235.383 98.6796 240.343 95.6396C245.335 92.5997 248.855 88.4401 250.903 83.1602L232.279 78.4082C231.415 79.9761 230.151 81.2244 228.487 82.1523C226.823 83.0803 224.871 83.5439 222.631 83.5439C220.327 83.5439 218.344 83.0475 216.68 82.0557C215.016 81.0637 213.719 79.7036 212.791 77.9756C212.44 77.2979 212.159 76.5778 211.945 75.8164H251.623C251.655 75.2724 251.671 74.6959 251.671 74.0879V71.9756C251.671 66.3438 250.455 61.3995 248.023 57.1436C245.591 52.8557 242.135 49.5281 237.655 47.1602C233.207 44.7602 227.927 43.5596 221.815 43.5596ZM393.723 43.5596C387.483 43.5596 382.042 44.7602 377.402 47.1602C372.795 49.528 369.227 52.8559 366.699 57.1436C364.171 61.3995 362.907 66.3438 362.907 71.9756C362.907 77.5756 364.171 82.5038 366.699 86.7598C369.227 90.9837 372.794 94.2804 377.402 96.6484C382.042 99.0164 387.483 100.2 393.723 100.2C399.995 100.2 405.435 99.0164 410.043 96.6484C414.683 94.2804 418.267 90.9838 420.795 86.7598C423.323 82.5038 424.587 77.5755 424.587 71.9756C424.587 66.3438 423.307 61.3995 420.747 57.1436C418.219 52.8557 414.651 49.5281 410.043 47.1602C405.435 44.7602 399.995 43.5596 393.723 43.5596ZM564.172 43.5596C560.78 43.5596 557.563 44.248 554.523 45.624C551.484 46.9679 548.796 48.9039 546.46 51.4316C544.124 53.9596 542.283 56.9522 540.939 60.4082C539.628 63.864 538.972 67.7198 538.972 71.9756C538.972 77.5756 540.22 82.5038 542.716 86.7598C545.212 90.9837 548.763 94.2804 553.371 96.6484C557.979 99.0164 563.419 100.2 569.691 100.2C577.243 100.2 583.563 98.632 588.651 95.4961C593.739 92.3601 597.084 88.0718 598.684 82.6318L579.724 77.1123C579.148 79.0642 577.996 80.6325 576.268 81.8164C574.572 82.9683 572.46 83.5439 569.932 83.5439C567.596 83.5439 565.58 83.0476 563.884 82.0557C562.22 81.0637 560.923 79.6719 559.995 77.8799C559.099 76.088 558.651 73.9599 558.651 71.4961C558.651 69.0643 559.099 66.9203 559.995 65.0645C560.891 63.2086 562.155 61.784 563.787 60.792C565.419 59.7681 567.323 59.2559 569.499 59.2559C571.387 59.2559 573.035 59.6402 574.443 60.4082C575.851 61.1442 576.988 62.2478 577.852 63.7197C578.662 65.0697 579.176 66.6731 579.396 68.5293L579.436 68.9043H598.636V44.7598H579.436V59.0156H578.812C578.524 55.6238 577.819 52.7756 576.699 50.4717C575.579 48.1679 573.979 46.44 571.899 45.2881C569.852 44.1361 567.276 43.5596 564.172 43.5596ZM93.0322 43.4639C87.9122 43.4639 83.8795 44.8398 80.9355 47.5918C78.0237 50.3438 76.184 54.456 75.416 59.9277H74.7734C74.6045 54.9287 73.2194 50.9927 70.6162 48.1201C67.8642 45.0161 63.6879 43.4639 58.0879 43.4639C52.9361 43.4639 48.8883 44.84 45.9443 47.5918C43.0324 50.3438 41.2077 54.4558 40.4717 59.9277H39.7998V44.7598H13.9277V60.3115H20.5996V83.4482H13.9277V99H45.3203V83.4482H39.7998V72.9844C39.7998 69.7204 40.2159 67.0636 41.0479 65.0156C41.9118 62.9358 43.0323 61.416 44.4082 60.4561C45.8162 59.4641 47.3041 58.9678 48.8721 58.9678C51.016 58.9678 52.6644 59.6879 53.8164 61.1279C55.0002 62.5358 55.5917 64.4719 55.5918 66.9355V83.4482H50.1201V99H81.0801V83.4482H74.792V72.9844C74.792 69.7204 75.208 67.0636 76.04 65.0156C76.904 62.9358 78.0245 61.416 79.4004 60.4561C80.7763 59.4642 82.2643 58.9678 83.8643 58.9678C85.9761 58.9678 87.6078 59.6881 88.7598 61.1279C89.9437 62.5358 90.5361 64.4718 90.5361 66.9355V83.4482H85.0645V99H116.024V83.4482H109.736V60.9844C109.736 55.4804 108.344 51.1921 105.56 48.1201C102.808 45.0163 98.632 43.4639 93.0322 43.4639ZM165.267 43.5596C161.843 43.5596 158.851 44.2164 156.291 45.5283C153.731 46.8403 151.635 48.8078 150.003 51.4316C148.403 54.0556 147.331 57.3198 146.787 61.2236H146.163V44.7598H120.146V60.3115H126.963V83.4482H120.146V99H151.875V83.4482H146.163V72.9844C146.163 70.0725 146.562 67.576 147.362 65.4961C148.194 63.4162 149.331 61.8163 150.771 60.6963C152.242 59.5443 153.923 58.9678 155.811 58.9678C157.986 58.9678 159.667 59.688 160.851 61.1279C162.035 62.5679 162.627 64.5204 162.627 66.9844V83.4482H157.011V99H188.115V83.4482H181.827V61.2725C181.827 55.5765 180.403 51.208 177.555 48.168C174.739 45.096 170.643 43.5596 165.267 43.5596ZM336.313 43.4639C331.193 43.4639 327.161 44.8398 324.217 47.5918C321.305 50.3438 319.465 54.456 318.697 59.9277H318.055C317.886 54.9287 316.501 50.9927 313.897 48.1201C311.145 45.0161 306.969 43.4639 301.369 43.4639C296.217 43.4639 292.17 44.84 289.226 47.5918C286.314 50.3438 284.489 54.4558 283.753 59.9277H283.081V44.7598H257.209V60.3115H263.881V83.4482H257.209V99H288.602V83.4482H283.081V72.9844C283.081 69.7204 283.497 67.0636 284.329 65.0156C285.193 62.9358 286.314 61.416 287.689 60.4561C289.097 59.4641 290.585 58.9678 292.153 58.9678C294.297 58.9678 295.946 59.6879 297.098 61.1279C298.281 62.5358 298.873 64.4719 298.873 66.9355V83.4482H293.401V99H324.361V83.4482H318.073V72.9844C318.073 69.7204 318.489 67.0636 319.321 65.0156C320.185 62.9358 321.306 61.416 322.682 60.4561C324.058 59.4642 325.546 58.9678 327.146 58.9678C329.257 58.9678 330.889 59.6881 332.041 61.1279C333.225 62.5358 333.817 64.4718 333.817 66.9355V83.4482H328.346V99H359.306V83.4482H353.018V60.9844C353.018 55.4804 351.625 51.1921 348.841 48.1201C346.089 45.0163 341.913 43.4639 336.313 43.4639ZM475.298 43.5596C471.874 43.5596 468.882 44.2164 466.322 45.5283C463.762 46.8403 461.666 48.8078 460.034 51.4316C458.434 54.0556 457.362 57.3198 456.818 61.2236H456.194V44.7598H430.178V60.3115H436.994V83.4482H430.178V99H461.906V83.4482H456.194V72.9844C456.194 70.0725 456.594 67.576 457.394 65.4961C458.225 63.4162 459.362 61.8163 460.802 60.6963C462.274 59.5443 463.954 58.9678 465.842 58.9678C468.018 58.9678 469.698 59.688 470.882 61.1279C472.066 62.5679 472.658 64.5204 472.658 66.9844V83.4482H467.042V99H498.146V83.4482H491.858V61.2725C491.858 55.5765 490.434 51.208 487.586 48.168C484.77 45.096 480.674 43.5596 475.298 43.5596ZM502.752 44.7598V60.3115H509.567V83.4482H502.752V99H534.863V83.4482H528.768V44.7598H502.752ZM393.723 60.2637C395.931 60.2637 397.85 60.7601 399.482 61.752C401.146 62.7119 402.426 64.0721 403.322 65.832C404.25 67.5919 404.715 69.6398 404.715 71.9756C404.715 74.2796 404.25 76.2964 403.322 78.0244C402.426 79.7522 401.146 81.1116 399.482 82.1035C397.85 83.0635 395.931 83.5439 393.723 83.5439C391.515 83.5439 389.579 83.0635 387.915 82.1035C386.283 81.1116 385.003 79.7522 384.075 78.0244C383.179 76.2964 382.73 74.2796 382.73 71.9756C382.731 69.6398 383.179 67.5919 384.075 65.832C385.003 64.0721 386.283 62.7119 387.915 61.752C389.579 60.7601 391.515 60.2637 393.723 60.2637ZM222.247 59.2559C224.455 59.2559 226.343 59.7521 227.911 60.7441C229.511 61.7361 230.728 63.1438 231.56 64.9678C231.903 65.6801 232.176 66.4489 232.383 67.2725H212.031C212.233 66.5415 212.485 65.853 212.791 65.208C213.687 63.288 214.935 61.816 216.535 60.792C218.167 59.768 220.071 59.2559 222.247 59.2559ZM508.464 23.4961V39.0479H529.104V23.4961H508.464Z" fill="currentColor"/>
</g>
<defs>
<clipPath id="clip0_1_5">
<rect width="612" height="128" fill="white"/>
</clipPath>
</defs>
</symbol>
<symbol id="square" viewBox="0 0 128 128">
<g clip-path="url(#clip0_1_2)">
<path d="M128 128H0V0H128V128ZM93.0322 43.4639C87.9122 43.4639 83.8795 44.8398 80.9355 47.5918C78.0237 50.3438 76.184 54.456 75.416 59.9277H74.7734C74.6045 54.9287 73.2194 50.9927 70.6162 48.1201C67.8642 45.0161 63.6879 43.4639 58.0879 43.4639C52.9361 43.4639 48.8883 44.84 45.9443 47.5918C43.0324 50.3438 41.2077 54.4558 40.4717 59.9277H39.7998V44.7598H13.9277V60.3115H20.5996V83.4482H13.9277V99H45.3203V83.4482H39.7998V72.9844C39.7998 69.7204 40.2159 67.0636 41.0479 65.0156C41.9118 62.9358 43.0323 61.416 44.4082 60.4561C45.8162 59.4641 47.3041 58.9678 48.8721 58.9678C51.016 58.9678 52.6644 59.6879 53.8164 61.1279C55.0002 62.5358 55.5917 64.4719 55.5918 66.9355V83.4482H50.1201V99H81.0801V83.4482H74.792V72.9844C74.792 69.7204 75.208 67.0636 76.04 65.0156C76.904 62.9358 78.0245 61.416 79.4004 60.4561C80.7763 59.4642 82.2643 58.9678 83.8643 58.9678C85.9761 58.9678 87.6078 59.6881 88.7598 61.1279C89.9437 62.5358 90.5361 64.4718 90.5361 66.9355V83.4482H85.0645V99H116.024V83.4482H109.736V60.9844C109.736 55.4804 108.344 51.1921 105.56 48.1201C102.808 45.0163 98.632 43.4639 93.0322 43.4639Z" fill="currentColor"/>
</g>
<defs>
<clipPath id="clip0_1_2">
<rect width="128" height="128" fill="white"/>
</clipPath>
</defs>
</symbol>

<symbol id="full-inverted" viewBox="0 0 612 128">
<path d="M85.064 99V83.448H90.536V66.936C90.536 64.472 89.944 62.536 88.76 61.128C87.608 59.688 85.976 58.968 83.864 58.968C82.264 58.968 80.776 59.464 79.4 60.456C78.024 61.416 76.904 62.936 76.04 65.016C75.208 67.064 74.792 69.72 74.792 72.984L71.912 59.928H75.416C76.184 54.456 78.024 50.344 80.936 47.592C83.88 44.84 87.912 43.464 93.032 43.464C98.632 43.464 102.808 45.016 105.56 48.12C108.344 51.192 109.736 55.48 109.736 60.984V83.448H116.024V99H85.064ZM13.928 99V83.448H20.6V60.312H13.928V44.76H39.8V83.448H45.32V99H13.928ZM50.12 99V83.448H55.592V66.936C55.592 64.472 55 62.536 53.816 61.128C52.664 59.688 51.016 58.968 48.872 58.968C47.304 58.968 45.816 59.464 44.408 60.456C43.032 61.416 41.912 62.936 41.048 65.016C40.216 67.064 39.8 69.72 39.8 72.984L36.968 59.928H40.472C41.208 54.456 43.032 50.344 45.944 47.592C48.888 44.84 52.936 43.464 58.088 43.464C63.688 43.464 67.864 45.016 70.616 48.12C73.4 51.192 74.792 55.48 74.792 60.984V83.448H81.08V99H50.12ZM146.163 83.448H151.875V99H120.147V83.448H126.963V60.312H120.147V44.76H146.163V83.448ZM162.627 83.448V66.984C162.627 64.52 162.035 62.568 160.851 61.128C159.667 59.688 157.987 58.968 155.811 58.968C153.923 58.968 152.243 59.544 150.771 60.696C149.331 61.816 148.195 63.416 147.363 65.496C146.563 67.576 146.163 70.072 146.163 72.984L143.331 61.224H146.787C147.331 57.32 148.403 54.056 150.003 51.432C151.635 48.808 153.731 46.84 156.291 45.528C158.851 44.216 161.843 43.56 165.267 43.56C170.643 43.56 174.739 45.096 177.555 48.168C180.403 51.208 181.827 55.576 181.827 61.272V83.448H188.115V99H157.011V83.448H162.627ZM222.343 100.2C216.071 100.2 210.647 99.016 206.071 96.648C201.495 94.28 197.959 90.984 195.463 86.76C192.999 82.536 191.767 77.608 191.767 71.976C191.767 66.344 192.999 61.4 195.463 57.144C197.927 52.856 201.399 49.528 205.879 47.16C210.391 44.76 215.703 43.56 221.815 43.56C227.927 43.56 233.207 44.76 237.655 47.16C242.135 49.528 245.591 52.856 248.023 57.144C250.455 61.4 251.671 66.344 251.671 71.976C251.671 72.744 251.671 73.448 251.671 74.088C251.671 74.696 251.655 75.272 251.623 75.816H232.711C232.775 75.144 232.807 74.456 232.807 73.752C232.839 73.016 232.855 72.232 232.855 71.4C232.855 68.904 232.423 66.76 231.559 64.968C230.727 63.144 229.511 61.736 227.911 60.744C226.343 59.752 224.455 59.256 222.247 59.256C220.071 59.256 218.167 59.768 216.535 60.792C214.935 61.816 213.687 63.288 212.791 65.208C211.895 67.096 211.447 69.352 211.447 71.976C211.447 74.248 211.895 76.248 212.791 77.976C213.719 79.704 215.015 81.064 216.679 82.056C218.343 83.048 220.327 83.544 222.631 83.544C224.871 83.544 226.823 83.08 228.487 82.152C230.151 81.224 231.415 79.976 232.279 78.408L250.903 83.16C248.855 88.44 245.335 92.6 240.343 95.64C235.383 98.68 229.383 100.2 222.343 100.2ZM204.007 75.816V67.272H237.847L238.423 75.816H204.007ZM328.345 99V83.448H333.817V66.936C333.817 64.472 333.225 62.536 332.041 61.128C330.889 59.688 329.257 58.968 327.145 58.968C325.545 58.968 324.057 59.464 322.681 60.456C321.305 61.416 320.185 62.936 319.321 65.016C318.489 67.064 318.073 69.72 318.073 72.984L315.193 59.928H318.697C319.465 54.456 321.305 50.344 324.217 47.592C327.161 44.84 331.193 43.464 336.313 43.464C341.913 43.464 346.089 45.016 348.841 48.12C351.625 51.192 353.017 55.48 353.017 60.984V83.448H359.305V99H328.345ZM257.209 99V83.448H263.881V60.312H257.209V44.76H283.081V83.448H288.601V99H257.209ZM293.401 99V83.448H298.873V66.936C298.873 64.472 298.281 62.536 297.097 61.128C295.945 59.688 294.297 58.968 292.153 58.968C290.585 58.968 289.097 59.464 287.689 60.456C286.313 61.416 285.193 62.936 284.329 65.016C283.497 67.064 283.081 69.72 283.081 72.984L280.249 59.928H283.753C284.489 54.456 286.313 50.344 289.225 47.592C292.169 44.84 296.217 43.464 301.369 43.464C306.969 43.464 311.145 45.016 313.897 48.12C316.681 51.192 318.073 55.48 318.073 60.984V83.448H324.361V99H293.401ZM393.723 100.2C387.483 100.2 382.043 99.016 377.403 96.648C372.795 94.28 369.227 90.984 366.699 86.76C364.171 82.504 362.907 77.576 362.907 71.976C362.907 66.344 364.171 61.4 366.699 57.144C369.227 52.856 372.795 49.528 377.403 47.16C382.043 44.76 387.483 43.56 393.723 43.56C399.995 43.56 405.435 44.76 410.043 47.16C414.651 49.528 418.219 52.856 420.747 57.144C423.307 61.4 424.587 66.344 424.587 71.976C424.587 77.576 423.323 82.504 420.795 86.76C418.267 90.984 414.683 94.28 410.043 96.648C405.435 99.016 399.995 100.2 393.723 100.2ZM393.723 83.544C395.931 83.544 397.851 83.064 399.483 82.104C401.147 81.112 402.427 79.752 403.323 78.024C404.251 76.296 404.715 74.28 404.715 71.976C404.715 69.64 404.251 67.592 403.323 65.832C402.427 64.072 401.147 62.712 399.483 61.752C397.851 60.76 395.931 60.264 393.723 60.264C391.515 60.264 389.579 60.76 387.915 61.752C386.283 62.712 385.003 64.072 384.075 65.832C383.179 67.592 382.731 69.64 382.731 71.976C382.731 74.28 383.179 76.296 384.075 78.024C385.003 79.752 386.283 81.112 387.915 82.104C389.579 83.064 391.515 83.544 393.723 83.544ZM456.194 83.448H461.906V99H430.178V83.448H436.994V60.312H430.178V44.76H456.194V83.448ZM472.658 83.448V66.984C472.658 64.52 472.066 62.568 470.882 61.128C469.698 59.688 468.018 58.968 465.842 58.968C463.954 58.968 462.274 59.544 460.802 60.696C459.362 61.816 458.226 63.416 457.394 65.496C456.594 67.576 456.194 70.072 456.194 72.984L453.362 61.224H456.818C457.362 57.32 458.434 54.056 460.034 51.432C461.666 48.808 463.762 46.84 466.322 45.528C468.882 44.216 471.874 43.56 475.298 43.56C480.674 43.56 484.77 45.096 487.586 48.168C490.434 51.208 491.858 55.576 491.858 61.272V83.448H498.146V99H467.042V83.448H472.658ZM528.768 83.448H534.864V99H502.752V83.448H509.568V60.312H502.752V44.76H528.768V83.448ZM508.464 23.496H529.104V39.048H508.464V23.496ZM569.692 100.2C563.42 100.2 557.98 99.016 553.372 96.648C548.764 94.28 545.212 90.984 542.716 86.76C540.22 82.504 538.972 77.576 538.972 71.976C538.972 67.72 539.628 63.864 540.94 60.408C542.284 56.952 544.124 53.96 546.46 51.432C548.796 48.904 551.484 46.968 554.524 45.624C557.564 44.248 560.78 43.56 564.172 43.56C567.276 43.56 569.852 44.136 571.9 45.288C573.98 46.44 575.58 48.168 576.7 50.472C577.82 52.776 578.524 55.624 578.812 59.016H582.796L579.436 68.904C579.244 66.888 578.716 65.16 577.852 63.72C576.988 62.248 575.852 61.144 574.444 60.408C573.036 59.64 571.388 59.256 569.5 59.256C567.324 59.256 565.42 59.768 563.788 60.792C562.156 61.784 560.892 63.208 559.996 65.064C559.1 66.92 558.652 69.064 558.652 71.496C558.652 73.96 559.1 76.088 559.996 77.88C560.924 79.672 562.22 81.064 563.884 82.056C565.58 83.048 567.596 83.544 569.932 83.544C572.46 83.544 574.572 82.968 576.268 81.816C577.996 80.632 579.148 79.064 579.724 77.112L598.684 82.632C597.084 88.072 593.74 92.36 588.652 95.496C583.564 98.632 577.244 100.2 569.692 100.2ZM579.436 68.904V44.76H598.636V68.904H579.436Z" fill="currentColor"/>
</symbol>
</defs>
</svg>
